<?xml version="1.0" encoding="UTF-8" standalone="no"?>
<!-- Created with Inkscape (http://www.inkscape.org/) -->

<svg
   width="34.380844mm"
   height="8.6863098mm"
   viewBox="0 0 34.380844 8.6863098"
   version="1.1"
   id="svg1"
   inkscape:version="1.4 (86a8ad7, 2024-10-11)"
   sodipodi:docname="logo-2.svg"
   xmlns:inkscape="http://www.inkscape.org/namespaces/inkscape"
   xmlns:sodipodi="http://sodipodi.sourceforge.net/DTD/sodipodi-0.dtd"
   xmlns="http://www.w3.org/2000/svg"
   xmlns:svg="http://www.w3.org/2000/svg">
  <sodipodi:namedview
     id="namedview1"
     pagecolor="#ffffff"
     bordercolor="#eeeeee"
     borderopacity="1"
     inkscape:showpageshadow="0"
     inkscape:pageopacity="0"
     inkscape:pagecheckerboard="0"
     inkscape:deskcolor="#d1d1d1"
     inkscape:document-units="mm"
     inkscape:zoom="0.68862935"
     inkscape:cx="73.33408"
     inkscape:cy="-41.38656"
     inkscape:window-width="1920"
     inkscape:window-height="991"
     inkscape:window-x="-9"
     inkscape:window-y="-9"
     inkscape:window-maximized="1"
     inkscape:current-layer="layer1" />
  <defs
     id="defs1" />
  <g
     inkscape:label="Capa 1"
     inkscape:groupmode="layer"
     id="layer1"
     transform="translate(-85.724999,-159.27917)">
    <g
       id="g2"
       transform="translate(6.614594,19.182767)">
      <path
         d="m 84.258539,140.09645 c 0.105555,0 0.158316,0.0505 0.158316,0.15143 v 0.65389 c 0,0.10096 -0.05276,0.15143 -0.158316,0.15143 h -2.987331 c -0.178955,0 -0.326964,0.0149 -0.443967,0.0448 -0.117012,0.0298 -0.209928,0.0803 -0.278767,0.15142 -0.06885,0.0711 -0.118157,0.1675 -0.147986,0.28911 -0.02982,0.12159 -0.04475,0.27186 -0.04475,0.45085 v 0.13765 h 3.86838 c 0.100957,0 0.151461,0.0505 0.151461,0.15143 v 0.54378 c 0,0.10096 -0.0505,0.15142 -0.151461,0.15142 h -3.86838 v 1.78968 c 0,0.10095 -0.05047,0.15142 -0.151426,0.15142 h -0.743416 c -0.105519,0 -0.158314,-0.0505 -0.158314,-0.15142 v -2.84968 c 0,-0.33038 0.03557,-0.61033 0.106712,-0.83975 0.07113,-0.22945 0.183547,-0.41644 0.337266,-0.56101 0.153718,-0.14453 0.352198,-0.25008 0.595392,-0.31663 0.24324,-0.0665 0.539196,-0.0998 0.887957,-0.0998 z"
         style="fill:#666666;fill-opacity:1;fill-rule:nonzero;stroke:none;stroke-width:0.115752"
         id="path28" />
      <path
         d="m 89.99918,140.09645 c 0.105554,0 0.158315,0.0505 0.158315,0.15143 v 0.65389 c 0,0.10096 -0.05276,0.15143 -0.158315,0.15143 h -3.007972 c -0.178986,0 -0.326963,0.0149 -0.443966,0.0448 -0.117048,0.0298 -0.211109,0.0803 -0.282215,0.15142 -0.07114,0.0711 -0.120484,0.1675 -0.148013,0.28911 -0.02753,0.12159 -0.04128,0.27186 -0.04128,0.45085 v 0.0688 h 3.88902 c 0.100958,0 0.151461,0.0505 0.151461,0.15145 v 0.54376 c 0,0.10096 -0.0505,0.15146 -0.151461,0.15146 h -3.88902 v 0.117 c 0,0.17896 0.01375,0.32927 0.04128,0.45087 0.02753,0.12159 0.07687,0.21797 0.148013,0.2891 0.07111,0.0711 0.165167,0.1216 0.282215,0.15143 0.117003,0.0298 0.26498,0.0447 0.443966,0.0447 h 3.007972 c 0.105554,0 0.158315,0.0505 0.158315,0.15145 v 0.65391 c 0,0.10095 -0.05276,0.15142 -0.158315,0.15142 h -3.028646 c -0.348747,0 -0.644714,-0.0321 -0.887943,-0.0964 -0.243195,-0.0643 -0.441672,-0.16866 -0.595391,-0.31319 -0.153732,-0.14454 -0.266138,-0.33268 -0.33728,-0.56443 -0.07113,-0.23174 -0.106699,-0.5128 -0.106699,-0.84318 v -1.18394 c 0,-0.33038 0.03557,-0.61033 0.106699,-0.83975 0.07114,-0.22945 0.183548,-0.41644 0.33728,-0.56101 0.153719,-0.14453 0.352196,-0.25008 0.595391,-0.31663 0.243229,-0.0665 0.539196,-0.0998 0.887943,-0.0998 z"
         style="fill:#666666;fill-opacity:1;fill-rule:nonzero;stroke:none;stroke-width:0.115752"
         id="path30" />
      <path
         d="m 94.617862,140.09645 c 0.100958,0 0.188132,0.007 0.261564,0.0206 0.07343,0.0138 0.137687,0.0402 0.192738,0.0791 0.05506,0.039 0.10441,0.0918 0.147977,0.15831 0.04362,0.0666 0.08836,0.1549 0.134239,0.26502 l 1.431734,3.30396 c 0.01834,0.0413 0.05045,0.0619 0.09636,0.0619 h 0.08259 c 0.04591,0 0.07803,-0.0206 0.09636,-0.0619 l 1.431735,-3.30396 c 0.04587,-0.11012 0.09062,-0.19847 0.134202,-0.26502 0.0436,-0.0665 0.09295,-0.1193 0.148013,-0.15831 0.05505,-0.039 0.118148,-0.0654 0.189286,-0.0791 0.07113,-0.0138 0.157171,-0.0206 0.258129,-0.0206 h 0.736481 c 0.23865,0 0.39926,0.0539 0.48185,0.16173 0.0826,0.10785 0.1239,0.29254 0.1239,0.55412 v 3.951 c 0,0.10095 -0.0528,0.15142 -0.15832,0.15142 h -0.702107 c -0.100925,0 -0.151425,-0.0505 -0.151425,-0.15142 v -3.59307 c 0,-0.0459 -0.01834,-0.0688 -0.05506,-0.0688 h -0.06194 c -0.04591,0 -0.07574,0.0183 -0.08948,0.0551 l -1.390421,3.08369 c -0.0551,0.1239 -0.111297,0.22831 -0.168651,0.31319 -0.05736,0.0849 -0.119306,0.15489 -0.185851,0.20996 -0.06655,0.0551 -0.142271,0.0941 -0.227151,0.117 -0.08488,0.0229 -0.184693,0.0344 -0.299402,0.0344 h -0.330416 c -0.114709,0 -0.214522,-0.0115 -0.299402,-0.0344 -0.08492,-0.0229 -0.160619,-0.0619 -0.227164,-0.117 -0.06654,-0.0551 -0.128483,-0.12505 -0.185838,-0.20996 -0.05739,-0.0849 -0.113587,-0.18929 -0.168651,-0.31319 l -1.390422,-3.08369 c -0.01378,-0.0367 -0.0436,-0.0551 -0.08948,-0.0551 h -0.06195 c -0.03672,0 -0.05505,0.0229 -0.05505,0.0688 v 3.59307 c 0,0.10095 -0.0505,0.15142 -0.151462,0.15142 h -0.702068 c -0.105555,0 -0.158313,-0.0505 -0.158313,-0.15142 v -3.951 c 0,-0.26158 0.04128,-0.44627 0.123887,-0.55412 0.08259,-0.10782 0.245499,-0.16173 0.488705,-0.16173 z"
         style="fill:#b3b3b3;fill-opacity:1;fill-rule:nonzero;stroke:none;stroke-width:0.115752"
         id="path32" />
      <path
         d="m 104.52979,140.09645 c 0.17437,0 0.32123,0.0355 0.44053,0.10667 0.11931,0.0711 0.23631,0.20996 0.35105,0.41644 l 2.27837,4.13685 c 0.0229,0.0459 0.0287,0.0837 0.0172,0.11355 -0.0115,0.0298 -0.0448,0.0448 -0.0998,0.0448 h -0.87417 c -0.078,0 -0.13079,-0.0298 -0.15831,-0.0895 l -0.48873,-0.88795 h -3.23512 l -0.47494,0.88795 c -0.0321,0.0596 -0.0849,0.0895 -0.15833,0.0895 h -0.89483 c -0.0597,0 -0.0952,-0.0149 -0.10667,-0.0448 -0.0115,-0.0298 -0.006,-0.0676 0.0172,-0.11355 l 2.25772,-4.13685 c 0.11471,-0.20648 0.22713,-0.3453 0.33727,-0.41644 0.11011,-0.0711 0.23861,-0.10667 0.38548,-0.10667 z m -1.33536,3.04239 h 2.36785 l -1.09444,-2.01681 c -0.0184,-0.0321 -0.0436,-0.0482 -0.0757,-0.0482 h -0.0413 c -0.0321,0 -0.0574,0.016 -0.0757,0.0482 z"
         style="fill:#b3b3b3;fill-opacity:1;fill-rule:nonzero;stroke:none;stroke-width:0.115752"
         id="path34" />
      <path
         d="m 112.96865,140.09645 c 0.10098,0 0.15143,0.0505 0.15143,0.15143 v 0.65389 c 0,0.10096 -0.0504,0.15143 -0.15143,0.15143 h -3.44852 c -0.13304,0 -0.22712,0.0344 -0.2822,0.10326 -0.0551,0.0688 -0.0826,0.16291 -0.0826,0.28221 v 0.23404 c 0,0.25698 0.1193,0.38544 0.35794,0.38544 h 2.58122 c 0.39921,0 0.6998,0.10211 0.90169,0.30633 0.20192,0.20418 0.30288,0.49674 0.30288,0.87761 v 0.55067 c 0,0.33498 -0.0987,0.60571 -0.29599,0.81222 -0.19733,0.20648 -0.50477,0.30974 -0.92237,0.30974 h -3.81332 c -0.10555,0 -0.15832,-0.0505 -0.15832,-0.15142 v -0.65391 c 0,-0.10096 0.0528,-0.15145 0.15832,-0.15145 h 3.61373 c 0.13306,0 0.22713,-0.0344 0.28221,-0.10322 0.0551,-0.0688 0.0826,-0.16291 0.0826,-0.28222 v -0.28225 c 0,-0.25694 -0.1193,-0.38543 -0.35794,-0.38543 h -2.58121 c -0.39922,0 -0.69982,-0.10211 -0.9017,-0.30632 -0.20193,-0.20419 -0.30289,-0.49674 -0.30289,-0.87762 v -0.50247 c 0,-0.33498 0.0987,-0.60574 0.29599,-0.81222 0.19734,-0.20652 0.50478,-0.30974 0.92237,-0.30974 z"
         style="fill:#b3b3b3;fill-opacity:1;fill-rule:nonzero;stroke:none;stroke-width:0.115752"
         id="path36" />
      <path
         id="path38"
         style="fill:#ff7f2a;fill-opacity:1;fill-rule:nonzero;stroke:none;stroke-width:0.115752"
         d="m 79.673653,148.75252 h 0.407354 v -1.42825 h 0.563236 v -0.3319 h -1.533838 v 0.3319 h 0.563248 z" />
      <path
         id="path40"
         style="fill:#ff7f2a;fill-opacity:1;fill-rule:nonzero;stroke:none;stroke-width:0.115752"
         d="m 81.267833,148.42563 v -0.40733 h 0.817208 v -0.31683 h -0.817208 v -0.38222 h 0.925342 v -0.32688 h -1.330172 v 1.76015 h 1.362862 v -0.32689 z" />
      <path
         id="path42"
         style="fill:#ff7f2a;fill-opacity:1;fill-rule:nonzero;stroke:none;stroke-width:0.115752"
         d="m 83.387551,148.78271 c 0.306787,0 0.560758,-0.11064 0.726713,-0.31434 l -0.261508,-0.24139 c -0.118184,0.1383 -0.266532,0.20872 -0.442566,0.20872 -0.329395,0 -0.563236,-0.23132 -0.563236,-0.56325 0,-0.33192 0.233841,-0.56324 0.563236,-0.56324 0.176034,0 0.324382,0.0704 0.442566,0.20619 l 0.261508,-0.2414 c -0.165955,-0.20116 -0.419926,-0.3118 -0.72418,-0.3118 -0.548153,0 -0.955508,0.37969 -0.955508,0.91025 0,0.53057 0.407355,0.91026 0.952975,0.91026" />
      <path
         id="path44"
         style="fill:#ff7f2a;fill-opacity:1;fill-rule:nonzero;stroke:none;stroke-width:0.115752"
         d="m 85.600331,146.99237 v 1.06865 l -0.875051,-1.06865 h -0.336942 v 1.76015 h 0.402309 v -1.06867 l 0.877571,1.06867 h 0.334418 v -1.76015 z" />
      <path
         id="path46"
         style="fill:#ff7f2a;fill-opacity:1;fill-rule:nonzero;stroke:none;stroke-width:0.115752"
         d="m 87.272469,148.78271 c 0.553199,0 0.963055,-0.38475 0.963055,-0.91026 0,-0.52554 -0.409856,-0.91025 -0.963055,-0.91025 -0.55569,0 -0.963045,0.38724 -0.963045,0.91025 0,0.52302 0.407355,0.91026 0.963045,0.91026 z m 0,-0.34701 c -0.314302,0 -0.550676,-0.22883 -0.550676,-0.56325 0,-0.33444 0.236374,-0.56324 0.550676,-0.56324 0.314298,0 0.550676,0.2288 0.550676,0.56324 0,0.33442 -0.236378,0.56325 -0.550676,0.56325" />
      <path
         id="path48"
         style="fill:#ff7f2a;fill-opacity:1;fill-rule:nonzero;stroke:none;stroke-width:0.115752"
         d="m 88.542311,148.75252 h 1.289917 v -0.33192 h -0.882561 v -1.42823 h -0.407356 z" />
      <path
         id="path50"
         style="fill:#ff7f2a;fill-opacity:1;fill-rule:nonzero;stroke:none;stroke-width:0.115752"
         d="m 90.883309,148.78271 c 0.553213,0 0.963055,-0.38475 0.963055,-0.91026 0,-0.52554 -0.409842,-0.91025 -0.963055,-0.91025 -0.555689,0 -0.963041,0.38724 -0.963041,0.91025 0,0.52302 0.407352,0.91026 0.963041,0.91026 z m 0,-0.34701 c -0.314298,0 -0.550666,-0.22883 -0.550666,-0.56325 0,-0.33444 0.236368,-0.56324 0.550666,-0.56324 0.314302,0 0.55068,0.2288 0.55068,0.56324 0,0.33442 -0.236378,0.56325 -0.55068,0.56325" />
      <path
         id="path52"
         style="fill:#ff7f2a;fill-opacity:1;fill-rule:nonzero;stroke:none;stroke-width:0.115752"
         d="m 93.342504,148.36026 c -0.10309,0.0553 -0.206187,0.0754 -0.316825,0.0754 -0.336941,0 -0.570796,-0.23386 -0.570796,-0.56325 0,-0.33444 0.233855,-0.56324 0.57582,-0.56324 0.178524,0 0.326895,0.0628 0.455125,0.19864 l 0.261505,-0.2414 c -0.170974,-0.19864 -0.427469,-0.30425 -0.736747,-0.30425 -0.560713,0 -0.968068,0.37969 -0.968068,0.91025 0,0.53057 0.407355,0.91026 0.960521,0.91026 0.251471,0 0.517999,-0.078 0.711617,-0.22381 v -0.7141 h -0.372152 z" />
      <path
         id="path54"
         style="fill:#ff7f2a;fill-opacity:1;fill-rule:nonzero;stroke:none;stroke-width:0.115752"
         d="m 94.066694,146.84903 h 0.306788 l 0.455126,-0.36207 h -0.422449 z m 0.02517,1.90349 h 0.407355 v -1.76015 h -0.407355 z" />
      <path
         id="path56"
         style="fill:#ff7f2a;fill-opacity:1;fill-rule:nonzero;stroke:none;stroke-width:0.115752"
         d="m 96.231691,148.75252 h 0.427472 l -0.787053,-1.76015 h -0.402332 l -0.784531,1.76015 h 0.417435 l 0.155885,-0.37717 h 0.817207 z m -0.84237,-0.68644 0.279134,-0.67392 0.279088,0.67392 z" />
      <path
         id="path58"
         style="fill:#ff7f2a;fill-opacity:1;fill-rule:nonzero;stroke:none;stroke-width:0.115752"
         d="m 97.554331,148.75252 h 0.407352 v -1.76015 h -0.407352 z" />
      <path
         id="path60"
         style="fill:#ff7f2a;fill-opacity:1;fill-rule:nonzero;stroke:none;stroke-width:0.115752"
         d="m 99.591074,146.99237 v 1.06865 l -0.875058,-1.06865 h -0.336945 v 1.76015 h 0.402309 v -1.06867 l 0.877571,1.06867 h 0.334418 v -1.76015 z" />
      <path
         id="path62"
         style="fill:#ff7f2a;fill-opacity:1;fill-rule:nonzero;stroke:none;stroke-width:0.115752"
         d="m 100.41079,148.75252 h 0.79963 c 0.57581,0 0.97059,-0.34701 0.97059,-0.88007 0,-0.53308 -0.39478,-0.88008 -0.97059,-0.88008 h -0.79963 z m 0.40737,-0.33441 v -1.09132 h 0.37214 c 0.34951,0 0.57834,0.20872 0.57834,0.54566 0,0.33694 -0.22883,0.54566 -0.57834,0.54566 z" />
      <path
         id="path64"
         style="fill:#ff7f2a;fill-opacity:1;fill-rule:nonzero;stroke:none;stroke-width:0.115752"
         d="m 103.26979,148.78271 c 0.50042,0 0.79711,-0.28667 0.79711,-0.80467 v -0.98567 h -0.40231 v 0.97061 c 0,0.33442 -0.14332,0.47272 -0.39226,0.47272 -0.24641,0 -0.39226,-0.1383 -0.39226,-0.47272 v -0.97061 h -0.40737 v 0.98567 c 0,0.518 0.29672,0.80467 0.79709,0.80467" />
      <path
         id="path66"
         style="fill:#ff7f2a;fill-opacity:1;fill-rule:nonzero;stroke:none;stroke-width:0.115752"
         d="m 105.04756,148.78271 c 0.50291,0 0.74679,-0.25147 0.74679,-0.54523 0,-0.64625 -1.02339,-0.42201 -1.02339,-0.74683 0,-0.11106 0.093,-0.20159 0.33441,-0.20159 0.15592,0 0.32438,0.0453 0.48785,0.1383 l 0.1257,-0.30928 c -0.16343,-0.10309 -0.38974,-0.15588 -0.61102,-0.15588 -0.50037,0 -0.74177,0.24894 -0.74177,0.54857 0,0.65377 1.02339,0.42747 1.02339,0.75687 0,0.10771 -0.0981,0.18818 -0.33946,0.18818 -0.21121,0 -0.4325,-0.0754 -0.58083,-0.18316 l -0.1383,0.30636 c 0.15588,0.12071 0.4375,0.20369 0.71663,0.20369" />
      <path
         id="path68"
         style="fill:#ff7f2a;fill-opacity:1;fill-rule:nonzero;stroke:none;stroke-width:0.115752"
         d="m 106.41295,148.75252 h 0.40736 v -1.42825 h 0.56323 v -0.3319 h -1.53383 v 0.3319 h 0.56324 z" />
      <path
         id="path70"
         style="fill:#ff7f2a;fill-opacity:1;fill-rule:nonzero;stroke:none;stroke-width:0.115752"
         d="m 109.16127,148.75252 -0.39475,-0.56577 c 0.2288,-0.0981 0.36208,-0.29169 0.36208,-0.55569 0,-0.39479 -0.29419,-0.63869 -0.76442,-0.63869 h -0.76187 v 1.76015 h 0.40735 v -0.49034 h 0.35452 0.0201 l 0.33946,0.49034 z m -0.44505,-1.12146 c 0,0.1911 -0.12573,0.30675 -0.37468,0.30675 h -0.33188 v -0.61354 h 0.33188 c 0.24895,0 0.37468,0.11317 0.37468,0.30679" />
      <path
         id="path72"
         style="fill:#ff7f2a;fill-opacity:1;fill-rule:nonzero;stroke:none;stroke-width:0.115752"
         d="m 109.45048,148.75252 h 0.40735 v -1.76015 h -0.40735 z" />
      <path
         id="path74"
         style="fill:#ff7f2a;fill-opacity:1;fill-rule:nonzero;stroke:none;stroke-width:0.115752"
         d="m 111.59031,148.75252 h 0.42747 l -0.78705,-1.76015 h -0.40233 l -0.78453,1.76015 h 0.41743 l 0.15589,-0.37717 h 0.8172 z m -0.84237,-0.68644 0.27913,-0.67392 0.27909,0.67392 z" />
      <path
         id="path76"
         style="fill:#ff7f2a;fill-opacity:1;fill-rule:nonzero;stroke:none;stroke-width:0.115752"
         d="m 112.20133,148.75252 h 1.28992 v -0.33192 h -0.88256 v -1.42823 h -0.40736 z" />
    </g>
  </g>
</svg>
