<?xml version="1.0" encoding="UTF-8" standalone="no"?>
<!-- Created with Inkscape (http://www.inkscape.org/) -->

<svg
   width="63.837749mm"
   height="28mm"
   viewBox="0 0 63.837749 28"
   version="1.1"
   id="svg1"
   inkscape:version="1.4 (86a8ad7, 2024-10-11)"
   sodipodi:docname="logo-complete.svg"
   xmlns:inkscape="http://www.inkscape.org/namespaces/inkscape"
   xmlns:sodipodi="http://sodipodi.sourceforge.net/DTD/sodipodi-0.dtd"
   xmlns="http://www.w3.org/2000/svg"
   xmlns:svg="http://www.w3.org/2000/svg">
  <sodipodi:namedview
     id="namedview1"
     pagecolor="#ffffff"
     bordercolor="#eeeeee"
     borderopacity="1"
     inkscape:showpageshadow="0"
     inkscape:pageopacity="0"
     inkscape:pagecheckerboard="0"
     inkscape:deskcolor="#d1d1d1"
     inkscape:document-units="mm"
     inkscape:zoom="2.7545174"
     inkscape:cx="80.05032"
     inkscape:cy="83.31768"
     inkscape:window-width="1920"
     inkscape:window-height="991"
     inkscape:window-x="-9"
     inkscape:window-y="-9"
     inkscape:window-maximized="1"
     inkscape:current-layer="layer1" />
  <defs
     id="defs1" />
  <g
     inkscape:label="Capa 1"
     inkscape:groupmode="layer"
     id="layer1"
     transform="translate(-79.110405,-130.43958)">
    <g
       id="g4"
       transform="matrix(0.32811534,0,0,0.32811534,48.89162,94.815913)">
      <path
         d="m 208.75508,130.60163 38.22095,21.7403 c 0.86652,0.53022 1.04816,0.7916 0.98962,1.85 l 0.0584,31.74793 c 0.002,1.06721 -1.21646,0.89147 -1.92168,0.56078 l -26.01069,-15.68925 c -0.92106,-0.53347 -1.5613,-0.5231 -1.50758,-0.0309 l -1.3e-4,7.74497 c 0.32433,0.50874 0.62967,1.042 0.91219,1.59815 2.91781,5.74675 2.29634,11.73134 -1.38711,13.36683 -3.68407,1.63543 -9.03535,-1.69694 -11.95295,-7.44359 -2.91781,-5.74654 -2.29634,-11.73113 1.38719,-13.36683 0.39153,-0.174 0.80195,-0.29093 1.22661,-0.35542 v -18.74033 c 0.0154,-0.6424 0.62527,-0.49545 1.5227,0.0309 l 25.9953,15.45875 c 1.02806,0.51587 1.54526,0.50014 1.53795,-0.0616 l 0.0154,-9.66732 -29.07192,-16.75875 z m 2.16191,48.16291 c 1.50759,-0.66971 3.69728,0.69424 4.89146,3.04587 1.19416,2.35162 0.93969,4.80066 -0.56789,5.46996 -1.50758,0.66945 -3.69714,-0.6945 -4.89124,-3.04592 -1.19397,-2.35183 -0.93991,-4.80079 0.56767,-5.46991"
         style="fill:#f18a17;fill-opacity:1;fill-rule:evenodd;stroke:none;stroke-width:0.677505"
         id="path22" />
      <path
         d="m 250.32284,143.71528 5.9627,3.55655 h 2.60535 l 7.23948,-5.18399 0.86213,-0.7357 -8.10831,-4.13427 c 0.19166,-3.77661 -4.43861,-7.08847 -10.54022,-7.46509 -6.25235,-0.38564 -11.68174,2.45691 -12.12556,6.35012 -0.44398,3.89219 4.26503,7.36103 10.51771,7.74666 1.23896,0.0766 2.44518,0.0257 3.58672,-0.13424 z m -41.56776,-13.11365 37.80685,-21.7687 c 0.67528,-0.31185 1.40643,-0.38583 2.24587,0 l 37.84912,21.83286 -10.63912,5.79334 -27.08772,-15.75144 c -0.80772,-0.40195 -1.61511,-0.4183 -2.42269,0 l -27.051,15.98111 z m 33.76636,5.64294 c 0.19958,-1.75048 2.6405,-3.02839 5.45188,-2.85514 2.81178,0.17342 4.92836,1.7332 4.72863,3.48339 -0.19932,1.75012 -2.64009,3.02838 -5.45147,2.85494 -2.81165,-0.17381 -4.92837,-1.73299 -4.72904,-3.48319"
         style="fill:#fbbc07;fill-opacity:1;fill-rule:evenodd;stroke:none;stroke-width:0.677505"
         id="path24" />
      <path
         d="m 276.0178,136.36347 10.63912,-5.69768 -0.081,45.05954 -30.2184,17.07371 v -0.35221 l -0.0718,-45.175 10.70695,-5.91969 v 33.8633 l 9.0253,-5.52423 z"
         style="fill:#ec681f;fill-opacity:1;fill-rule:evenodd;stroke:none;stroke-width:0.677505"
         id="path26" />
      <path
         d="m 107.78807,138.00189 c 0.3217,0 0.4825,0.15378 0.4825,0.46151 v 1.99287 c 0,0.3077 -0.1608,0.46151 -0.4825,0.46151 h -9.104517 c -0.5454,0 -0.99649,0.0455 -1.35308,0.13642 -0.35662,0.0909 -0.6398,0.24468 -0.8496,0.46147 -0.20983,0.21681 -0.36011,0.5105 -0.45102,0.88113 -0.09088,0.37059 -0.136387,0.82857 -0.136387,1.37407 v 0.41952 h 11.789694 c 0.30769,0 0.46161,0.15388 0.46161,0.4615 v 1.65728 c 0,0.3077 -0.15392,0.46151 -0.46161,0.46151 H 95.893466 v 5.4544 c 0,0.30769 -0.153811,0.4615 -0.461504,0.4615 h -2.265715 c -0.321592,0 -0.482494,-0.15381 -0.482494,-0.4615 v -8.685 c 0,-1.0069 0.108408,-1.86009 0.325226,-2.5593 0.216782,-0.69931 0.559399,-1.26919 1.027888,-1.7098 0.468489,-0.44048 1.073397,-0.76218 1.814583,-0.96499 0.741323,-0.20271 1.643313,-0.3041 2.706233,-0.3041 z"
         style="fill:#666666;fill-opacity:1;fill-rule:nonzero;stroke:none;stroke-width:0.352778"
         id="path28" />
      <path
         d="m 125.28387,138.00189 c 0.3217,0 0.4825,0.15378 0.4825,0.46151 v 1.99287 c 0,0.3077 -0.1608,0.46151 -0.4825,0.46151 h -9.16742 c -0.5455,0 -0.99649,0.0455 -1.35308,0.13642 -0.35673,0.0909 -0.6434,0.24468 -0.86011,0.46147 -0.21682,0.21681 -0.3672,0.5105 -0.4511,0.88113 -0.0839,0.37059 -0.1258,0.82857 -0.1258,1.37407 v 0.20972 h 11.8526 c 0.30769,0 0.46161,0.15389 0.46161,0.46158 v 1.65721 c 0,0.30769 -0.15392,0.46161 -0.46161,0.46161 h -11.8526 v 0.35658 c 0,0.5454 0.0419,1.00352 0.1258,1.37411 0.0839,0.37059 0.23428,0.66432 0.4511,0.8811 0.21671,0.21671 0.50338,0.37059 0.86011,0.4615 0.35659,0.0909 0.80758,0.13631 1.35308,0.13631 h 9.16742 c 0.3217,0 0.4825,0.15389 0.4825,0.46158 v 1.99291 c 0,0.30769 -0.1608,0.4615 -0.4825,0.4615 h -9.23043 c -1.06288,0 -1.9649,-0.0979 -2.70619,-0.29368 -0.74119,-0.19583 -1.34609,-0.51404 -1.81458,-0.95451 -0.46853,-0.44052 -0.81111,-1.01392 -1.02793,-1.72022 -0.21678,-0.70629 -0.32519,-1.56287 -0.32519,-2.56977 v -3.60832 c 0,-1.0069 0.10841,-1.86009 0.32519,-2.5593 0.21682,-0.69931 0.5594,-1.26919 1.02793,-1.7098 0.46849,-0.44048 1.07339,-0.76218 1.81458,-0.96499 0.74129,-0.20271 1.64331,-0.3041 2.70619,-0.3041 z"
         style="fill:#666666;fill-opacity:1;fill-rule:nonzero;stroke:none;stroke-width:0.352778"
         id="path30" />
      <path
         d="m 139.36027,138.00189 c 0.30769,0 0.57337,0.0209 0.79717,0.0629 0.2238,0.042 0.41963,0.12238 0.58741,0.2412 0.16782,0.11888 0.31821,0.27979 0.45099,0.48249 0.13293,0.20281 0.26931,0.47209 0.40912,0.80769 l 4.36351,10.06951 c 0.0559,0.1259 0.15377,0.1888 0.29369,0.1888 h 0.2517 c 0.13991,0 0.23781,-0.0629 0.29369,-0.1888 l 4.36351,-10.06951 c 0.1398,-0.3356 0.27619,-0.60488 0.40901,-0.80769 0.13289,-0.2027 0.28328,-0.36361 0.4511,-0.48249 0.16778,-0.11882 0.36008,-0.19922 0.57689,-0.2412 0.21679,-0.042 0.47901,-0.0629 0.7867,-0.0629 h 2.24458 c 0.72732,0 1.2168,0.16429 1.46851,0.4929 0.25171,0.32869 0.37761,0.89158 0.37761,1.68879 v 12.0415 c 0,0.30769 -0.16079,0.4615 -0.48249,0.4615 h -2.13981 c -0.30759,0 -0.4615,-0.15381 -0.4615,-0.4615 v -10.95061 c 0,-0.13988 -0.0559,-0.2098 -0.16782,-0.2098 h -0.18877 c -0.13991,0 -0.23082,0.0559 -0.2727,0.16782 l -4.2376,9.39818 c -0.16792,0.37761 -0.3392,0.69582 -0.514,0.95451 -0.1748,0.2588 -0.36361,0.47208 -0.56642,0.6399 -0.20281,0.16782 -0.4336,0.2867 -0.69229,0.35659 -0.25869,0.0699 -0.56289,0.10491 -0.91249,0.10491 h -1.00701 c -0.3496,0 -0.6538,-0.035 -0.91249,-0.10491 -0.2588,-0.0699 -0.48952,-0.18877 -0.69233,-0.35659 -0.20278,-0.16782 -0.39158,-0.3811 -0.56638,-0.6399 -0.17491,-0.25869 -0.34618,-0.5769 -0.514,-0.95451 l -4.2376,-9.39818 c -0.042,-0.1119 -0.13289,-0.16782 -0.2727,-0.16782 h -0.18881 c -0.1119,0 -0.16778,0.0699 -0.16778,0.2098 v 10.95061 c 0,0.30769 -0.15392,0.4615 -0.46161,0.4615 h -2.1397 c -0.3217,0 -0.48249,-0.15381 -0.48249,-0.4615 v -12.0415 c 0,-0.79721 0.1258,-1.3601 0.37757,-1.68879 0.25171,-0.32861 0.74821,-0.4929 1.48943,-0.4929 z"
         style="fill:#b3b3b3;fill-opacity:1;fill-rule:nonzero;stroke:none;stroke-width:0.352778"
         id="path32" />
      <path
         d="m 169.56895,138.00189 c 0.53142,0 0.97899,0.10831 1.3426,0.32509 0.36361,0.21681 0.7202,0.6399 1.0699,1.26919 l 6.9438,12.60792 c 0.0699,0.13988 0.0874,0.2552 0.0524,0.34608 -0.035,0.0909 -0.13642,0.13641 -0.3042,0.13641 h -2.66421 c -0.23781,0 -0.3986,-0.0909 -0.48249,-0.27269 l -1.4895,-2.7062 h -9.85972 l -1.44748,2.7062 c -0.0979,0.18178 -0.25873,0.27269 -0.48253,0.27269 h -2.72718 c -0.18179,0 -0.2902,-0.0455 -0.32509,-0.13641 -0.035,-0.0909 -0.0175,-0.2062 0.0524,-0.34608 l 6.88089,-12.60792 c 0.34961,-0.62929 0.69222,-1.05238 1.02789,-1.26919 0.3356,-0.21678 0.72722,-0.32509 1.17482,-0.32509 z m -4.06979,9.27231 h 7.2165 l -3.33552,-6.14663 c -0.056,-0.0979 -0.13289,-0.14679 -0.23079,-0.14679 h -0.1259 c -0.0978,0 -0.1748,0.0489 -0.23068,0.14679 z"
         style="fill:#b3b3b3;fill-opacity:1;fill-rule:nonzero;stroke:none;stroke-width:0.352778"
         id="path34" />
      <path
         d="m 195.28814,138.00189 c 0.30773,0 0.46151,0.15378 0.46151,0.46151 v 1.99287 c 0,0.3077 -0.15378,0.46151 -0.46151,0.46151 h -10.5101 c -0.40548,0 -0.69218,0.10491 -0.86007,0.31471 -0.16781,0.2098 -0.2517,0.4965 -0.2517,0.86011 v 0.71328 c 0,0.7832 0.3636,1.17471 1.09089,1.17471 h 7.8668 c 1.2167,0 2.13279,0.31119 2.74811,0.93359 0.61538,0.6223 0.92308,1.51392 0.92308,2.6747 v 1.6783 c 0,1.0209 -0.30068,1.84602 -0.90209,2.47541 -0.60142,0.62928 -1.5384,0.94399 -2.81111,0.94399 h -11.62188 c -0.3217,0 -0.48253,-0.15381 -0.48253,-0.4615 v -1.99291 c 0,-0.30769 0.16083,-0.46158 0.48253,-0.46158 h 11.01358 c 0.40552,0 0.69222,-0.10491 0.86011,-0.3146 0.16778,-0.2098 0.25171,-0.4965 0.25171,-0.86011 v -0.86021 c 0,-0.7831 -0.36361,-1.17468 -1.0909,-1.17468 h -7.8668 c -1.2167,0 -2.13282,-0.31122 -2.7481,-0.93359 -0.61542,-0.6223 -0.92312,-1.51391 -0.92312,-2.67473 v -1.53137 c 0,-1.02091 0.30071,-1.84612 0.90209,-2.47541 0.60142,-0.62943 1.53843,-0.944 2.81111,-0.944 z"
         style="fill:#b3b3b3;fill-opacity:1;fill-rule:nonzero;stroke:none;stroke-width:0.352778"
         id="path36" />
      <path
         id="path38"
         style="fill:#ff7f2a;fill-opacity:1;fill-rule:nonzero;stroke:none;stroke-width:0.352778"
         d="m 93.814671,164.38307 h 1.241496 v -4.35289 h 1.716581 v -1.01152 h -4.674693 v 1.01152 h 1.716616 z" />
      <path
         id="path40"
         style="fill:#ff7f2a;fill-opacity:1;fill-rule:nonzero;stroke:none;stroke-width:0.352778"
         d="m 98.673268,163.38679 v -1.24142 h 2.490612 v -0.96559 h -2.490612 v -1.16491 h 2.820172 v -0.99621 h -4.053977 v 5.36441 h 4.153607 v -0.99628 z" />
      <path
         id="path42"
         style="fill:#ff7f2a;fill-opacity:1;fill-rule:nonzero;stroke:none;stroke-width:0.352778"
         d="m 105.13355,164.47508 c 0.935,0 1.70903,-0.33719 2.21481,-0.95801 l -0.797,-0.73568 c -0.36019,0.4215 -0.81231,0.63609 -1.34881,0.63609 -1.0039,0 -1.71658,-0.70499 -1.71658,-1.71661 0,-1.01159 0.71268,-1.71658 1.71658,-1.71658 0.5365,0 0.98862,0.21449 1.34881,0.6284 l 0.797,-0.73572 c -0.50578,-0.61309 -1.27981,-0.95028 -2.20709,-0.95028 -1.67061,0 -2.91211,1.15719 -2.91211,2.77418 0,1.61703 1.2415,2.77421 2.90439,2.77421" />
      <path
         id="path44"
         style="fill:#ff7f2a;fill-opacity:1;fill-rule:nonzero;stroke:none;stroke-width:0.352778"
         d="m 111.87746,159.01866 v 3.25692 l -2.6669,-3.25692 h -1.0269 v 5.36441 h 1.22612 v -3.25698 l 2.67458,3.25698 h 1.01921 v -5.36441 z" />
      <path
         id="path46"
         style="fill:#ff7f2a;fill-opacity:1;fill-rule:nonzero;stroke:none;stroke-width:0.352778"
         d="m 116.97365,164.47508 c 1.68599,0 2.93511,-1.1726 2.93511,-2.77421 0,-1.60168 -1.24912,-2.77418 -2.93511,-2.77418 -1.69358,0 -2.93508,1.18019 -2.93508,2.77418 0,1.59402 1.2415,2.77421 2.93508,2.77421 z m 0,-1.0576 c -0.9579,0 -1.6783,-0.6974 -1.6783,-1.71661 0,-1.01928 0.7204,-1.71658 1.6783,-1.71658 0.95789,0 1.6783,0.6973 1.6783,1.71658 0,1.01921 -0.72041,1.71661 -1.6783,1.71661" />
      <path
         id="path48"
         style="fill:#ff7f2a;fill-opacity:1;fill-rule:nonzero;stroke:none;stroke-width:0.352778"
         d="m 120.84376,164.38307 h 3.93129 v -1.01159 h -2.68979 v -4.35282 h -1.2415 z" />
      <path
         id="path50"
         style="fill:#ff7f2a;fill-opacity:1;fill-rule:nonzero;stroke:none;stroke-width:0.352778"
         d="m 127.97844,164.47508 c 1.68603,0 2.93511,-1.1726 2.93511,-2.77421 0,-1.60168 -1.24908,-2.77418 -2.93511,-2.77418 -1.69358,0 -2.93507,1.18019 -2.93507,2.77418 0,1.59402 1.24149,2.77421 2.93507,2.77421 z m 0,-1.0576 c -0.95789,0 -1.67827,-0.6974 -1.67827,-1.71661 0,-1.01928 0.72038,-1.71658 1.67827,-1.71658 0.9579,0 1.67831,0.6973 1.67831,1.71658 0,1.01921 -0.72041,1.71661 -1.67831,1.71661" />
      <path
         id="path52"
         style="fill:#ff7f2a;fill-opacity:1;fill-rule:nonzero;stroke:none;stroke-width:0.352778"
         d="m 135.47335,163.18758 c -0.31419,0.16859 -0.6284,0.2299 -0.96559,0.2299 -1.0269,0 -1.73962,-0.71271 -1.73962,-1.71661 0,-1.01928 0.71272,-1.71658 1.75493,-1.71658 0.54409,0 0.99628,0.19148 1.38709,0.6054 l 0.79699,-0.73572 c -0.52108,-0.6054 -1.3028,-0.92728 -2.24539,-0.92728 -1.70889,0 -2.95039,1.15719 -2.95039,2.77418 0,1.61703 1.2415,2.77421 2.92739,2.77421 0.76641,0 1.57871,-0.2376 2.1688,-0.6821 v -2.17639 h -1.13421 z" />
      <path
         id="path54"
         style="fill:#ff7f2a;fill-opacity:1;fill-rule:nonzero;stroke:none;stroke-width:0.352778"
         d="m 137.68047,158.58178 h 0.935 l 1.38709,-1.10349 h -1.2875 z m 0.0767,5.80129 h 1.2415 v -5.36441 h -1.2415 z" />
      <path
         id="path56"
         style="fill:#ff7f2a;fill-opacity:1;fill-rule:nonzero;stroke:none;stroke-width:0.352778"
         d="m 144.27875,164.38307 h 1.30281 l -2.39871,-5.36441 h -1.22619 l -2.39102,5.36441 h 1.27222 l 0.47509,-1.14949 h 2.49061 z m -2.5673,-2.09208 0.85072,-2.0539 0.85058,2.0539 z" />
      <path
         id="path58"
         style="fill:#ff7f2a;fill-opacity:1;fill-rule:nonzero;stroke:none;stroke-width:0.352778"
         d="m 148.30977,164.38307 h 1.24149 v -5.36441 h -1.24149 z" />
      <path
         id="path60"
         style="fill:#ff7f2a;fill-opacity:1;fill-rule:nonzero;stroke:none;stroke-width:0.352778"
         d="m 154.51717,159.01866 v 3.25692 l -2.66692,-3.25692 h -1.02691 v 5.36441 h 1.22612 v -3.25698 l 2.67458,3.25698 h 1.01921 v -5.36441 z" />
      <path
         id="path62"
         style="fill:#ff7f2a;fill-opacity:1;fill-rule:nonzero;stroke:none;stroke-width:0.352778"
         d="m 157.01544,164.38307 h 2.43703 c 1.75489,0 2.95807,-1.05759 2.95807,-2.6822 0,-1.62468 -1.20318,-2.68221 -2.95807,-2.68221 h -2.43703 z m 1.24153,-1.01917 v -3.32603 h 1.13418 c 1.06521,0 1.76262,0.6361 1.76262,1.663 0,1.0269 -0.69741,1.66303 -1.76262,1.66303 z" />
      <path
         id="path64"
         style="fill:#ff7f2a;fill-opacity:1;fill-rule:nonzero;stroke:none;stroke-width:0.352778"
         d="m 165.72884,164.47508 c 1.52513,0 2.42933,-0.87369 2.42933,-2.45241 v -3.00401 h -1.22611 v 2.95812 c 0,1.01921 -0.43681,1.4407 -1.19549,1.4407 -0.751,0 -1.1955,-0.42149 -1.1955,-1.4407 v -2.95812 h -1.24153 v 3.00401 c 0,1.57872 0.90431,2.45241 2.4293,2.45241" />
      <path
         id="path66"
         style="fill:#ff7f2a;fill-opacity:1;fill-rule:nonzero;stroke:none;stroke-width:0.352778"
         d="m 171.14694,164.47508 c 1.53272,0 2.27602,-0.76641 2.27602,-1.66169 0,-1.9696 -3.11902,-1.28619 -3.11902,-2.27612 0,-0.33849 0.28353,-0.6144 1.01921,-0.6144 0.4752,0 0.98859,0.138 1.48682,0.4215 l 0.38308,-0.94259 c -0.49808,-0.31418 -1.1878,-0.47509 -1.8622,-0.47509 -1.52499,0 -2.26071,0.75869 -2.26071,1.67189 0,1.99249 3.11901,1.30281 3.11901,2.30671 0,0.32829 -0.2989,0.57351 -1.03459,0.57351 -0.64371,0 -1.31812,-0.22991 -1.7702,-0.5582 l -0.4215,0.93369 c 0.47509,0.36788 1.33339,0.62079 2.18408,0.62079" />
      <path
         id="path68"
         style="fill:#ff7f2a;fill-opacity:1;fill-rule:nonzero;stroke:none;stroke-width:0.352778"
         d="m 175.30827,164.38307 h 1.2415 v -4.35289 h 1.71658 v -1.01152 h -4.67469 v 1.01152 h 1.71661 z" />
      <path
         id="path70"
         style="fill:#ff7f2a;fill-opacity:1;fill-rule:nonzero;stroke:none;stroke-width:0.352778"
         d="m 183.68435,164.38307 -1.20308,-1.7243 c 0.6973,-0.29888 1.10349,-0.889 1.10349,-1.69358 0,-1.20322 -0.89659,-1.94653 -2.32971,-1.94653 h -2.32198 v 5.36441 h 1.24149 v -1.4944 h 1.08049 0.0613 l 1.03459,1.4944 z m -1.3564,-3.41788 c 0,0.5824 -0.38319,0.93489 -1.1419,0.93489 h -1.01149 v -1.8699 h 1.01149 c 0.75871,0 1.1419,0.34491 1.1419,0.93501" />
      <path
         id="path72"
         style="fill:#ff7f2a;fill-opacity:1;fill-rule:nonzero;stroke:none;stroke-width:0.352778"
         d="m 184.56576,164.38307 h 1.2415 v -5.36441 h -1.2415 z" />
      <path
         id="path74"
         style="fill:#ff7f2a;fill-opacity:1;fill-rule:nonzero;stroke:none;stroke-width:0.352778"
         d="m 191.08735,164.38307 h 1.30281 l -2.39871,-5.36441 h -1.22619 l -2.39102,5.36441 h 1.27222 l 0.47509,-1.14949 h 2.49061 z m -2.5673,-2.09208 0.85072,-2.0539 0.85058,2.0539 z" />
      <path
         id="path76"
         style="fill:#ff7f2a;fill-opacity:1;fill-rule:nonzero;stroke:none;stroke-width:0.352778"
         d="m 192.94956,164.38307 h 3.93129 v -1.01159 h -2.68979 v -4.35282 h -1.2415 z" />
    </g>
  </g>
</svg>
