<?xml version="1.0" encoding="UTF-8" standalone="no"?>
<!-- Created with Inkscape (http://www.inkscape.org/) -->

<svg
   width="16.998301mm"
   height="2.40939mm"
   viewBox="0 0 16.998301 2.40939"
   version="1.1"
   id="svg1"
   inkscape:version="1.4 (86a8ad7, 2024-10-11)"
   sodipodi:docname="logo-3.svg"
   xmlns:inkscape="http://www.inkscape.org/namespaces/inkscape"
   xmlns:sodipodi="http://sodipodi.sourceforge.net/DTD/sodipodi-0.dtd"
   xmlns="http://www.w3.org/2000/svg"
   xmlns:svg="http://www.w3.org/2000/svg">
  <sodipodi:namedview
     id="namedview1"
     pagecolor="#ffffff"
     bordercolor="#eeeeee"
     borderopacity="1"
     inkscape:showpageshadow="0"
     inkscape:pageopacity="0"
     inkscape:pagecheckerboard="0"
     inkscape:deskcolor="#d1d1d1"
     inkscape:document-units="mm"
     inkscape:zoom="5.5090348"
     inkscape:cx="4.62876"
     inkscape:cy="-4.81028"
     inkscape:window-width="1920"
     inkscape:window-height="991"
     inkscape:window-x="-9"
     inkscape:window-y="-9"
     inkscape:window-maximized="1"
     inkscape:current-layer="layer1" />
  <defs
     id="defs1" />
  <g
     inkscape:label="Capa 1"
     inkscape:groupmode="layer"
     id="layer1"
     transform="translate(-187.54957,-179.17763)">
    <g
       id="g1">
      <path
         d="m 190.02761,179.17786 c 0.0528,0 0.0792,0.0252 0.0792,0.0757 v 0.32694 c 0,0.0505 -0.0264,0.0757 -0.0792,0.0757 h -1.49367 c -0.0895,0 -0.16348,0.007 -0.22198,0.0224 -0.0585,0.0149 -0.10496,0.0402 -0.13938,0.0757 -0.0344,0.0356 -0.0591,0.0837 -0.074,0.14455 -0.0149,0.0608 -0.0224,0.13593 -0.0224,0.22543 v 0.0688 h 1.93419 c 0.0505,0 0.0757,0.0252 0.0757,0.0757 v 0.27189 c 0,0.0505 -0.0252,0.0757 -0.0757,0.0757 h -1.93419 v 0.89484 c 0,0.0505 -0.0252,0.0757 -0.0757,0.0757 h -0.37171 c -0.0528,0 -0.0792,-0.0252 -0.0792,-0.0757 v -1.42484 c 0,-0.16519 0.0178,-0.30517 0.0534,-0.41988 0.0356,-0.11472 0.0918,-0.20821 0.16863,-0.2805 0.0769,-0.0723 0.1761,-0.12504 0.2977,-0.15832 0.12162,-0.0332 0.26959,-0.0499 0.44397,-0.0499 z"
         style="fill:#666666;fill-opacity:1;fill-rule:nonzero;stroke:none;stroke-width:0.057876"
         id="path28" />
      <path
         d="m 192.89793,179.17786 c 0.0528,0 0.0792,0.0252 0.0792,0.0757 v 0.32694 c 0,0.0505 -0.0264,0.0757 -0.0792,0.0757 h -1.50399 c -0.0895,0 -0.16348,0.007 -0.22198,0.0224 -0.0585,0.0149 -0.10555,0.0402 -0.14111,0.0757 -0.0356,0.0356 -0.0602,0.0837 -0.074,0.14455 -0.0138,0.0608 -0.0206,0.13593 -0.0206,0.22543 v 0.0344 h 1.94451 c 0.0505,0 0.0757,0.0252 0.0757,0.0757 v 0.27187 c 0,0.0505 -0.0252,0.0757 -0.0757,0.0757 h -1.94451 v 0.0585 c 0,0.0895 0.007,0.16464 0.0206,0.22544 0.0138,0.0608 0.0384,0.10899 0.074,0.14455 0.0356,0.0356 0.0826,0.0608 0.14111,0.0757 0.0585,0.0149 0.13249,0.0223 0.22198,0.0223 h 1.50399 c 0.0528,0 0.0792,0.0252 0.0792,0.0757 v 0.32696 c 0,0.0505 -0.0264,0.0757 -0.0792,0.0757 h -1.51432 c -0.17438,0 -0.32236,-0.016 -0.44397,-0.0482 -0.1216,-0.0322 -0.22084,-0.0843 -0.2977,-0.1566 -0.0769,-0.0723 -0.13307,-0.16634 -0.16864,-0.28221 -0.0356,-0.11587 -0.0533,-0.2564 -0.0533,-0.42159 v -0.59197 c 0,-0.16519 0.0178,-0.30517 0.0533,-0.41988 0.0356,-0.11473 0.0918,-0.20822 0.16864,-0.2805 0.0769,-0.0723 0.1761,-0.12505 0.2977,-0.15832 0.12161,-0.0333 0.26959,-0.0499 0.44397,-0.0499 z"
         style="fill:#666666;fill-opacity:1;fill-rule:nonzero;stroke:none;stroke-width:0.057876"
         id="path30" />
      <path
         d="m 195.20727,179.17786 c 0.0505,0 0.0941,0.003 0.13078,0.0103 0.0367,0.007 0.0688,0.0201 0.0964,0.0396 0.0275,0.0195 0.0522,0.0459 0.074,0.0791 0.0218,0.0333 0.0442,0.0774 0.0671,0.13251 l 0.71587,1.65198 c 0.009,0.0206 0.0252,0.0309 0.0482,0.0309 h 0.0413 c 0.023,0 0.039,-0.0103 0.0482,-0.0309 l 0.71587,-1.65198 c 0.0229,-0.0551 0.0453,-0.0992 0.0671,-0.13251 0.0218,-0.0333 0.0465,-0.0597 0.074,-0.0791 0.0275,-0.0195 0.0591,-0.0327 0.0946,-0.0396 0.0356,-0.007 0.0786,-0.0103 0.12906,-0.0103 h 0.36824 c 0.11933,0 0.19963,0.0269 0.24093,0.0809 0.0413,0.0539 0.0619,0.14627 0.0619,0.27706 v 1.9755 c 0,0.0505 -0.0264,0.0757 -0.0792,0.0757 h -0.35105 c -0.0505,0 -0.0757,-0.0252 -0.0757,-0.0757 v -1.79654 c 0,-0.0229 -0.009,-0.0344 -0.0275,-0.0344 h -0.031 c -0.023,0 -0.0379,0.009 -0.0447,0.0275 l -0.69521,1.54185 c -0.0276,0.0619 -0.0556,0.11416 -0.0843,0.1566 -0.0287,0.0424 -0.0597,0.0774 -0.0929,0.10497 -0.0333,0.0275 -0.0711,0.047 -0.11357,0.0585 -0.0424,0.0114 -0.0923,0.0172 -0.1497,0.0172 h -0.16521 c -0.0574,0 -0.10726,-0.006 -0.1497,-0.0172 -0.0425,-0.0114 -0.0803,-0.0309 -0.11359,-0.0585 -0.0333,-0.0276 -0.0642,-0.0625 -0.0929,-0.10497 -0.0287,-0.0425 -0.0568,-0.0947 -0.0843,-0.1566 l -0.69521,-1.54185 c -0.007,-0.0183 -0.0218,-0.0275 -0.0447,-0.0275 h -0.031 c -0.0184,0 -0.0275,0.0115 -0.0275,0.0344 v 1.79654 c 0,0.0505 -0.0252,0.0757 -0.0757,0.0757 h -0.35104 c -0.0528,0 -0.0791,-0.0252 -0.0791,-0.0757 v -1.9755 c 0,-0.13079 0.0206,-0.22313 0.0619,-0.27706 0.0413,-0.0539 0.12275,-0.0809 0.24435,-0.0809 z"
         style="fill:#b3b3b3;fill-opacity:1;fill-rule:nonzero;stroke:none;stroke-width:0.057876"
         id="path32" />
      <path
         d="m 200.16323,179.17786 c 0.0872,0 0.16062,0.0177 0.22027,0.0533 0.0597,0.0356 0.11815,0.10498 0.17552,0.20822 l 1.13919,2.06842 c 0.0115,0.0229 0.0144,0.0418 0.009,0.0568 -0.006,0.0149 -0.0224,0.0224 -0.0499,0.0224 h -0.43709 c -0.039,0 -0.0654,-0.0149 -0.0791,-0.0447 l -0.24437,-0.44397 h -1.61756 l -0.23747,0.44397 c -0.0161,0.0298 -0.0425,0.0447 -0.0792,0.0447 h -0.44742 c -0.0299,0 -0.0476,-0.007 -0.0533,-0.0224 -0.006,-0.0149 -0.003,-0.0338 0.009,-0.0568 l 1.12886,-2.06842 c 0.0574,-0.10324 0.11356,-0.17265 0.16863,-0.20822 0.0551,-0.0356 0.11931,-0.0533 0.19274,-0.0533 z m -0.66768,1.52119 h 1.18393 l -0.54722,-1.0084 c -0.009,-0.0161 -0.0218,-0.0241 -0.0378,-0.0241 h -0.0207 c -0.0161,0 -0.0287,0.008 -0.0378,0.0241 z"
         style="fill:#b3b3b3;fill-opacity:1;fill-rule:nonzero;stroke:none;stroke-width:0.057876"
         id="path34" />
      <path
         d="m 204.38266,179.17786 c 0.0505,0 0.0757,0.0252 0.0757,0.0757 v 0.32694 c 0,0.0505 -0.0252,0.0757 -0.0757,0.0757 h -1.72426 c -0.0665,0 -0.11356,0.0172 -0.1411,0.0516 -0.0276,0.0344 -0.0413,0.0815 -0.0413,0.14111 v 0.11701 c 0,0.12849 0.0597,0.19272 0.17897,0.19272 h 1.29061 c 0.19961,0 0.3499,0.0511 0.45085,0.15317 0.10096,0.10209 0.15144,0.24837 0.15144,0.4388 v 0.27534 c 0,0.16749 -0.0493,0.30285 -0.148,0.40611 -0.0987,0.10324 -0.25238,0.15487 -0.46118,0.15487 h -1.90666 c -0.0528,0 -0.0792,-0.0252 -0.0792,-0.0757 v -0.32696 c 0,-0.0505 0.0264,-0.0757 0.0792,-0.0757 h 1.80686 c 0.0665,0 0.11357,-0.0172 0.14111,-0.0516 0.0276,-0.0344 0.0413,-0.0815 0.0413,-0.14111 v -0.14113 c 0,-0.12847 -0.0597,-0.19271 -0.17897,-0.19271 h -1.29061 c -0.19961,0 -0.34991,-0.0511 -0.45085,-0.15316 -0.10096,-0.1021 -0.15144,-0.24837 -0.15144,-0.43881 v -0.25124 c 0,-0.16749 0.0494,-0.30287 0.14799,-0.40611 0.0987,-0.10326 0.25239,-0.15487 0.46119,-0.15487 z"
         style="fill:#b3b3b3;fill-opacity:1;fill-rule:nonzero;stroke:none;stroke-width:0.057876"
         id="path36" />
    </g>
  </g>
</svg>
